<mxfile host="app.diagrams.net" modified="2024-02-26T14:46:53.391Z" agent="Mozilla/5.0 (Windows NT 10.0; Win64; x64) AppleWebKit/537.36 (KHTML, like Gecko) Chrome/122.0.0.0 Safari/537.36" etag="ddFlG8k8TmlyogTtilT_" version="22.1.21" type="device">
  <diagram name="Page-1" id="-2UyJD43iTSD0TEnXJen">
    <mxGraphModel dx="2283" dy="589" grid="1" gridSize="10" guides="1" tooltips="1" connect="1" arrows="1" fold="1" page="1" pageScale="1" pageWidth="850" pageHeight="1100" math="0" shadow="0">
      <root>
        <mxCell id="0" />
        <mxCell id="1" parent="0" />
        <mxCell id="MxtwmpS4e-KDOFVvpH53-1" value="Unit" style="whiteSpace=wrap;html=1;align=center;" parent="1" vertex="1">
          <mxGeometry x="-718.52" y="70" width="100" height="40" as="geometry" />
        </mxCell>
        <mxCell id="MxtwmpS4e-KDOFVvpH53-2" value="Description" style="ellipse;whiteSpace=wrap;html=1;align=center;" parent="1" vertex="1">
          <mxGeometry x="-848.52" y="70" width="100" height="40" as="geometry" />
        </mxCell>
        <mxCell id="MxtwmpS4e-KDOFVvpH53-3" value="UnitId" style="ellipse;whiteSpace=wrap;html=1;align=center;fontStyle=4;" parent="1" vertex="1">
          <mxGeometry x="-718.52" width="100" height="40" as="geometry" />
        </mxCell>
        <mxCell id="MxtwmpS4e-KDOFVvpH53-4" value="" style="endArrow=none;html=1;rounded=0;" parent="1" source="MxtwmpS4e-KDOFVvpH53-3" target="MxtwmpS4e-KDOFVvpH53-1" edge="1">
          <mxGeometry relative="1" as="geometry">
            <mxPoint x="-488.52" y="190" as="sourcePoint" />
            <mxPoint x="-328.52" y="190" as="targetPoint" />
          </mxGeometry>
        </mxCell>
        <mxCell id="MxtwmpS4e-KDOFVvpH53-5" value="" style="endArrow=none;html=1;rounded=0;" parent="1" source="MxtwmpS4e-KDOFVvpH53-2" target="MxtwmpS4e-KDOFVvpH53-1" edge="1">
          <mxGeometry relative="1" as="geometry">
            <mxPoint x="-658.52" y="50" as="sourcePoint" />
            <mxPoint x="-658.52" y="80" as="targetPoint" />
          </mxGeometry>
        </mxCell>
        <mxCell id="MxtwmpS4e-KDOFVvpH53-17" value="Location" style="whiteSpace=wrap;html=1;align=center;" parent="1" vertex="1">
          <mxGeometry x="-219.39999999999998" y="70" width="100" height="40" as="geometry" />
        </mxCell>
        <mxCell id="MxtwmpS4e-KDOFVvpH53-18" value="Description" style="ellipse;whiteSpace=wrap;html=1;align=center;" parent="1" vertex="1">
          <mxGeometry x="-99.39999999999998" y="70" width="100" height="40" as="geometry" />
        </mxCell>
        <mxCell id="MxtwmpS4e-KDOFVvpH53-19" value="PlaceId" style="ellipse;whiteSpace=wrap;html=1;align=center;fontStyle=4;" parent="1" vertex="1">
          <mxGeometry x="-219.39999999999998" width="100" height="40" as="geometry" />
        </mxCell>
        <mxCell id="MxtwmpS4e-KDOFVvpH53-20" value="" style="endArrow=none;html=1;rounded=0;" parent="1" source="MxtwmpS4e-KDOFVvpH53-19" target="MxtwmpS4e-KDOFVvpH53-17" edge="1">
          <mxGeometry relative="1" as="geometry">
            <mxPoint x="10.600000000000023" y="190" as="sourcePoint" />
            <mxPoint x="170.60000000000002" y="190" as="targetPoint" />
          </mxGeometry>
        </mxCell>
        <mxCell id="MxtwmpS4e-KDOFVvpH53-21" value="" style="endArrow=none;html=1;rounded=0;" parent="1" source="MxtwmpS4e-KDOFVvpH53-18" target="MxtwmpS4e-KDOFVvpH53-17" edge="1">
          <mxGeometry relative="1" as="geometry">
            <mxPoint x="-159.39999999999998" y="50" as="sourcePoint" />
            <mxPoint x="-159.39999999999998" y="80" as="targetPoint" />
          </mxGeometry>
        </mxCell>
        <mxCell id="MxtwmpS4e-KDOFVvpH53-22" value="Type" style="whiteSpace=wrap;html=1;align=center;" parent="1" vertex="1">
          <mxGeometry x="-720" y="250.65999999999997" width="100" height="39.67" as="geometry" />
        </mxCell>
        <mxCell id="MxtwmpS4e-KDOFVvpH53-23" value="Description" style="ellipse;whiteSpace=wrap;html=1;align=center;" parent="1" vertex="1">
          <mxGeometry x="-720" y="320.33" width="100" height="40" as="geometry" />
        </mxCell>
        <mxCell id="MxtwmpS4e-KDOFVvpH53-24" value="TypeId" style="ellipse;whiteSpace=wrap;html=1;align=center;fontStyle=4;" parent="1" vertex="1">
          <mxGeometry x="-850" y="250.32999999999998" width="100" height="40" as="geometry" />
        </mxCell>
        <mxCell id="MxtwmpS4e-KDOFVvpH53-25" value="" style="endArrow=none;html=1;rounded=0;" parent="1" source="MxtwmpS4e-KDOFVvpH53-24" target="MxtwmpS4e-KDOFVvpH53-22" edge="1">
          <mxGeometry relative="1" as="geometry">
            <mxPoint x="-500" y="370.33" as="sourcePoint" />
            <mxPoint x="-340" y="370.33" as="targetPoint" />
          </mxGeometry>
        </mxCell>
        <mxCell id="MxtwmpS4e-KDOFVvpH53-26" value="" style="endArrow=none;html=1;rounded=0;" parent="1" source="MxtwmpS4e-KDOFVvpH53-23" target="MxtwmpS4e-KDOFVvpH53-22" edge="1">
          <mxGeometry relative="1" as="geometry">
            <mxPoint x="-670" y="230.32999999999998" as="sourcePoint" />
            <mxPoint x="-670" y="260.33" as="targetPoint" />
          </mxGeometry>
        </mxCell>
        <mxCell id="MxtwmpS4e-KDOFVvpH53-33" value="Sensor" style="whiteSpace=wrap;html=1;align=center;" parent="1" vertex="1">
          <mxGeometry x="-219.39999999999998" y="250.32999999999998" width="100" height="40" as="geometry" />
        </mxCell>
        <mxCell id="MxtwmpS4e-KDOFVvpH53-34" value="SensorName" style="ellipse;whiteSpace=wrap;html=1;align=center;" parent="1" vertex="1">
          <mxGeometry x="-219.39999999999998" y="320.33" width="100" height="40" as="geometry" />
        </mxCell>
        <mxCell id="MxtwmpS4e-KDOFVvpH53-35" value="SensorId" style="ellipse;whiteSpace=wrap;html=1;align=center;fontStyle=4;" parent="1" vertex="1">
          <mxGeometry x="-99.39999999999998" y="250.32999999999998" width="100" height="40" as="geometry" />
        </mxCell>
        <mxCell id="MxtwmpS4e-KDOFVvpH53-36" value="" style="endArrow=none;html=1;rounded=0;" parent="1" source="MxtwmpS4e-KDOFVvpH53-35" target="MxtwmpS4e-KDOFVvpH53-33" edge="1">
          <mxGeometry relative="1" as="geometry">
            <mxPoint x="10.600000000000023" y="359.99999999999994" as="sourcePoint" />
            <mxPoint x="170.60000000000002" y="359.99999999999994" as="targetPoint" />
          </mxGeometry>
        </mxCell>
        <mxCell id="MxtwmpS4e-KDOFVvpH53-37" value="" style="endArrow=none;html=1;rounded=0;" parent="1" source="MxtwmpS4e-KDOFVvpH53-34" target="MxtwmpS4e-KDOFVvpH53-33" edge="1">
          <mxGeometry relative="1" as="geometry">
            <mxPoint x="-159.39999999999998" y="220" as="sourcePoint" />
            <mxPoint x="-159.39999999999998" y="250" as="targetPoint" />
          </mxGeometry>
        </mxCell>
        <mxCell id="MxtwmpS4e-KDOFVvpH53-41" value="" style="endArrow=none;html=1;rounded=0;" parent="1" source="MxtwmpS4e-KDOFVvpH53-17" target="MxtwmpS4e-KDOFVvpH53-42" edge="1">
          <mxGeometry relative="1" as="geometry">
            <mxPoint x="-229.39999999999998" y="230.32999999999998" as="sourcePoint" />
            <mxPoint x="-69.39999999999998" y="230.32999999999998" as="targetPoint" />
          </mxGeometry>
        </mxCell>
        <mxCell id="MxtwmpS4e-KDOFVvpH53-43" value="1" style="edgeLabel;html=1;align=center;verticalAlign=middle;resizable=0;points=[];" parent="MxtwmpS4e-KDOFVvpH53-41" vertex="1" connectable="0">
          <mxGeometry x="-0.6416" relative="1" as="geometry">
            <mxPoint y="11" as="offset" />
          </mxGeometry>
        </mxCell>
        <mxCell id="MxtwmpS4e-KDOFVvpH53-42" value="hat" style="shape=rhombus;perimeter=rhombusPerimeter;whiteSpace=wrap;html=1;align=center;" parent="1" vertex="1">
          <mxGeometry x="-229.39999999999998" y="150.16999999999996" width="120" height="60" as="geometry" />
        </mxCell>
        <mxCell id="MxtwmpS4e-KDOFVvpH53-44" value="" style="endArrow=none;html=1;rounded=0;" parent="1" source="MxtwmpS4e-KDOFVvpH53-33" target="MxtwmpS4e-KDOFVvpH53-42" edge="1">
          <mxGeometry relative="1" as="geometry">
            <mxPoint x="-209.39999999999998" y="138.32999999999998" as="sourcePoint" />
            <mxPoint x="-344.4" y="187.32999999999998" as="targetPoint" />
          </mxGeometry>
        </mxCell>
        <mxCell id="MxtwmpS4e-KDOFVvpH53-45" value="N" style="edgeLabel;html=1;align=center;verticalAlign=middle;resizable=0;points=[];" parent="MxtwmpS4e-KDOFVvpH53-44" vertex="1" connectable="0">
          <mxGeometry x="-0.6416" relative="1" as="geometry">
            <mxPoint y="-12" as="offset" />
          </mxGeometry>
        </mxCell>
        <mxCell id="MxtwmpS4e-KDOFVvpH53-55" value="hat" style="shape=rhombus;perimeter=rhombusPerimeter;whiteSpace=wrap;html=1;align=center;" parent="1" vertex="1">
          <mxGeometry x="-608.52" y="200.32999999999998" width="120" height="60" as="geometry" />
        </mxCell>
        <mxCell id="MxtwmpS4e-KDOFVvpH53-56" value="" style="endArrow=none;html=1;rounded=0;" parent="1" source="pCF61Jhj3OPDjZUYvopH-2" target="MxtwmpS4e-KDOFVvpH53-55" edge="1">
          <mxGeometry relative="1" as="geometry">
            <mxPoint x="-718.52" y="210" as="sourcePoint" />
            <mxPoint x="-558.52" y="210" as="targetPoint" />
          </mxGeometry>
        </mxCell>
        <mxCell id="MxtwmpS4e-KDOFVvpH53-57" value="N" style="edgeLabel;html=1;align=center;verticalAlign=middle;resizable=0;points=[];" parent="MxtwmpS4e-KDOFVvpH53-56" vertex="1" connectable="0">
          <mxGeometry x="-0.4703" y="2" relative="1" as="geometry">
            <mxPoint as="offset" />
          </mxGeometry>
        </mxCell>
        <mxCell id="MxtwmpS4e-KDOFVvpH53-58" value="" style="endArrow=none;html=1;rounded=0;" parent="1" source="MxtwmpS4e-KDOFVvpH53-55" target="MxtwmpS4e-KDOFVvpH53-22" edge="1">
          <mxGeometry relative="1" as="geometry">
            <mxPoint x="-718.52" y="210" as="sourcePoint" />
            <mxPoint x="-558.52" y="210" as="targetPoint" />
          </mxGeometry>
        </mxCell>
        <mxCell id="MxtwmpS4e-KDOFVvpH53-59" value="1" style="edgeLabel;html=1;align=center;verticalAlign=middle;resizable=0;points=[];" parent="MxtwmpS4e-KDOFVvpH53-58" vertex="1" connectable="0">
          <mxGeometry x="0.369" y="1" relative="1" as="geometry">
            <mxPoint as="offset" />
          </mxGeometry>
        </mxCell>
        <mxCell id="MxtwmpS4e-KDOFVvpH53-65" value="Value" style="ellipse;whiteSpace=wrap;html=1;align=center;" parent="1" vertex="1">
          <mxGeometry x="-478.52" y="90" width="100" height="40" as="geometry" />
        </mxCell>
        <mxCell id="MxtwmpS4e-KDOFVvpH53-66" value="Time" style="ellipse;whiteSpace=wrap;html=1;align=center;" parent="1" vertex="1">
          <mxGeometry x="-478.52" y="230.32999999999998" width="100" height="40" as="geometry" />
        </mxCell>
        <mxCell id="pCF61Jhj3OPDjZUYvopH-2" value="Entry" style="whiteSpace=wrap;html=1;align=center;" vertex="1" parent="1">
          <mxGeometry x="-478.52" y="160.32999999999998" width="100" height="39.67" as="geometry" />
        </mxCell>
        <mxCell id="pCF61Jhj3OPDjZUYvopH-3" value="hat" style="shape=rhombus;perimeter=rhombusPerimeter;whiteSpace=wrap;html=1;align=center;" vertex="1" parent="1">
          <mxGeometry x="-358.52" y="200.32999999999998" width="120" height="60" as="geometry" />
        </mxCell>
        <mxCell id="pCF61Jhj3OPDjZUYvopH-4" value="hat" style="shape=rhombus;perimeter=rhombusPerimeter;whiteSpace=wrap;html=1;align=center;" vertex="1" parent="1">
          <mxGeometry x="-608.52" y="100.32999999999998" width="120" height="60" as="geometry" />
        </mxCell>
        <mxCell id="pCF61Jhj3OPDjZUYvopH-5" value="" style="endArrow=none;html=1;rounded=0;" edge="1" parent="1" source="MxtwmpS4e-KDOFVvpH53-1" target="pCF61Jhj3OPDjZUYvopH-4">
          <mxGeometry relative="1" as="geometry">
            <mxPoint x="-378.52" y="230.32999999999998" as="sourcePoint" />
            <mxPoint x="-218.51999999999998" y="230.32999999999998" as="targetPoint" />
          </mxGeometry>
        </mxCell>
        <mxCell id="pCF61Jhj3OPDjZUYvopH-6" value="1" style="edgeLabel;html=1;align=center;verticalAlign=middle;resizable=0;points=[];" vertex="1" connectable="0" parent="pCF61Jhj3OPDjZUYvopH-5">
          <mxGeometry x="-0.0493" y="-3" relative="1" as="geometry">
            <mxPoint as="offset" />
          </mxGeometry>
        </mxCell>
        <mxCell id="pCF61Jhj3OPDjZUYvopH-7" value="" style="endArrow=none;html=1;rounded=0;" edge="1" parent="1" source="pCF61Jhj3OPDjZUYvopH-4" target="pCF61Jhj3OPDjZUYvopH-2">
          <mxGeometry relative="1" as="geometry">
            <mxPoint x="-378.52" y="230.32999999999998" as="sourcePoint" />
            <mxPoint x="-218.51999999999998" y="230.32999999999998" as="targetPoint" />
          </mxGeometry>
        </mxCell>
        <mxCell id="pCF61Jhj3OPDjZUYvopH-8" value="N" style="edgeLabel;html=1;align=center;verticalAlign=middle;resizable=0;points=[];" vertex="1" connectable="0" parent="pCF61Jhj3OPDjZUYvopH-7">
          <mxGeometry x="-0.1377" y="3" relative="1" as="geometry">
            <mxPoint as="offset" />
          </mxGeometry>
        </mxCell>
        <mxCell id="pCF61Jhj3OPDjZUYvopH-9" value="" style="endArrow=none;html=1;rounded=0;" edge="1" parent="1" source="pCF61Jhj3OPDjZUYvopH-2" target="MxtwmpS4e-KDOFVvpH53-65">
          <mxGeometry relative="1" as="geometry">
            <mxPoint x="-378.52" y="230.32999999999998" as="sourcePoint" />
            <mxPoint x="-218.51999999999998" y="230.32999999999998" as="targetPoint" />
          </mxGeometry>
        </mxCell>
        <mxCell id="pCF61Jhj3OPDjZUYvopH-10" value="" style="endArrow=none;html=1;rounded=0;" edge="1" parent="1" source="pCF61Jhj3OPDjZUYvopH-2" target="MxtwmpS4e-KDOFVvpH53-66">
          <mxGeometry relative="1" as="geometry">
            <mxPoint x="-375.52" y="180.32999999999998" as="sourcePoint" />
            <mxPoint x="-371.52" y="140.32999999999998" as="targetPoint" />
          </mxGeometry>
        </mxCell>
        <mxCell id="pCF61Jhj3OPDjZUYvopH-11" value="" style="endArrow=none;html=1;rounded=0;" edge="1" parent="1" source="pCF61Jhj3OPDjZUYvopH-2" target="pCF61Jhj3OPDjZUYvopH-3">
          <mxGeometry relative="1" as="geometry">
            <mxPoint x="-328.52" y="183.32999999999998" as="sourcePoint" />
            <mxPoint x="-296.52" y="172.32999999999998" as="targetPoint" />
          </mxGeometry>
        </mxCell>
        <mxCell id="pCF61Jhj3OPDjZUYvopH-12" value="N" style="edgeLabel;html=1;align=center;verticalAlign=middle;resizable=0;points=[];" vertex="1" connectable="0" parent="pCF61Jhj3OPDjZUYvopH-11">
          <mxGeometry x="-0.0828" y="2" relative="1" as="geometry">
            <mxPoint as="offset" />
          </mxGeometry>
        </mxCell>
        <mxCell id="pCF61Jhj3OPDjZUYvopH-13" value="" style="endArrow=none;html=1;rounded=0;" edge="1" parent="1" source="pCF61Jhj3OPDjZUYvopH-3" target="MxtwmpS4e-KDOFVvpH53-33">
          <mxGeometry relative="1" as="geometry">
            <mxPoint x="-318.52" y="193.32999999999998" as="sourcePoint" />
            <mxPoint x="-286.52" y="182.32999999999998" as="targetPoint" />
          </mxGeometry>
        </mxCell>
        <mxCell id="pCF61Jhj3OPDjZUYvopH-14" value="1" style="edgeLabel;html=1;align=center;verticalAlign=middle;resizable=0;points=[];" vertex="1" connectable="0" parent="pCF61Jhj3OPDjZUYvopH-13">
          <mxGeometry x="0.1538" relative="1" as="geometry">
            <mxPoint as="offset" />
          </mxGeometry>
        </mxCell>
        <mxCell id="pCF61Jhj3OPDjZUYvopH-16" value="&lt;u&gt;EntryID&lt;/u&gt;" style="ellipse;whiteSpace=wrap;html=1;align=center;" vertex="1" parent="1">
          <mxGeometry x="-348.52" y="90" width="100" height="40" as="geometry" />
        </mxCell>
        <mxCell id="pCF61Jhj3OPDjZUYvopH-18" value="" style="endArrow=none;html=1;rounded=0;" edge="1" parent="1" source="pCF61Jhj3OPDjZUYvopH-2" target="pCF61Jhj3OPDjZUYvopH-16">
          <mxGeometry relative="1" as="geometry">
            <mxPoint x="-418.52" y="170.32999999999998" as="sourcePoint" />
            <mxPoint x="-418.52" y="140.32999999999998" as="targetPoint" />
          </mxGeometry>
        </mxCell>
      </root>
    </mxGraphModel>
  </diagram>
</mxfile>
